<?xml version="1.0"?>
<svg xmlns="http://www.w3.org/2000/svg" width="88" height="88" fill="none">
  <path d="M44 88c24.31 0 44-19.69 44-44S68.31 0 44 0 0 19.69 0 44s19.69 44 44 44z" fill="#F0BE5F"/>
  <g clip-path="url(#clip0)" fill-rule="evenodd" clip-rule="evenodd">
    <path d="M44.59 41.82c0-3.944 1.833-6.204 4.093-7.76 1.94-1.344 8.23-4.073 9.317-7.654v7.418c0 3.817-1.961 5.97-3.88 7.25-.789.511-2.175 1.364-3.71 2.26-2.622 1.535-5.031 2.963-5.799 5.33V41.82h-.021z" fill="#fff"/>
    <path d="M44.59 55.123c0-3.944 1.833-6.204 4.093-7.76 1.94-1.343 8.23-4.072 9.317-7.654v7.42c0 3.816-1.961 5.97-3.88 7.248-.789.512-2.175 1.343-3.71 2.239-2.622 1.535-5.031 2.963-5.799 5.33v-6.822h-.021z" fill="#435EA8"/>
    <path d="M44.59 68.406c0-3.944 1.833-6.204 4.093-7.76 1.94-1.344 8.23-4.073 9.317-7.654v7.419c0 3.816-1.961 5.97-3.88 7.249-.789.511-2.175 1.343-3.71 2.238-2.622 1.535-5.031 2.964-5.799 5.33v-6.822h-.021z" fill="#E83D37"/>
    <path d="M42.82 41.82c0-3.944-1.833-6.204-4.093-7.76-1.94-1.344-8.23-4.073-9.317-7.654v7.418c0 3.817 1.961 5.97 3.88 7.25.79.511 2.175 1.343 3.71 2.238 2.622 1.535 5.031 2.964 5.799 5.33V41.82h.021zM42.82 75.228v-6.8c0-3.945-1.833-6.205-4.093-7.761-1.94-1.365-8.23-4.094-9.317-7.675v7.419c0 3.816 1.961 5.97 3.88 7.249.79.511 2.175 1.364 3.71 2.26 2.644 1.513 5.031 2.942 5.82 5.308zM38.727 47.342c-1.94-1.322-8.23-4.051-9.317-7.654v7.419c0 3.816 1.961 5.97 3.88 7.249.79.512 2.175 1.364 3.71 2.26 2.622 1.535 5.031 2.963 5.799 5.33v-6.801c.021-3.987-1.812-6.226-4.072-7.803zM49.749 26.192c0-4.903-4.35-7.398-6.055-13.9-1.706 6.502-6.076 8.997-6.076 13.9 0 5.48 4.328 5.075 6.076 8.273 1.727-3.22 6.055-2.793 6.055-8.273z" fill="#D19B3F"/>
  </g>
  <defs>
    <clipPath id="clip0">
      <path fill="#fff" d="M29.41 12.292H58v62.936H29.41z"/>
    </clipPath>
  </defs>
</svg>
